<?xml version="1.0" ?><svg viewBox="0 0 32 32" xmlns="http://www.w3.org/2000/svg"><g id="Cake"><path d="M28.72,25H26.66l-.94-7.24a.76.76,0,0,0-.75-.66H23.66L23,12.48a.75.75,0,0,0-.74-.65h-.77V10.77H26a.76.76,0,0,0,.75-.75V2A.76.76,0,0,0,26,1.25H6A.76.76,0,0,0,5.25,2v8a.76.76,0,0,0,.75.75h4.48v1.06H9.71a.75.75,0,0,0-.74.65l-.63,4.63H7a.76.76,0,0,0-.75.66L5.34,25H3.28a.75.75,0,0,0-.73.88L2.92,28a3.27,3.27,0,0,0,3.23,2.71h19.7A3.27,3.27,0,0,0,29.08,28l.37-2.15a.75.75,0,0,0-.73-.88ZM20,11.83H16.75V10.77H20ZM6.75,2.75h18.5V9.27H6.75Zm5.23,8h3.27v1.06H12Zm-1.61,2.56H21.63l.52,3.78H9.85Zm13.94,5.28.16,1.17H22a.76.76,0,0,0-.75.75v1.65a.5.5,0,0,1-1,0V20.53a.75.75,0,0,0-.75-.75H7.53l.16-1.17Zm-17,2.67H18.71v.9a2,2,0,0,0,4,0v-.9h1.95L25.15,25H6.85Zm20.26,6.5a1.77,1.77,0,0,1-1.75,1.47H6.15A1.77,1.77,0,0,1,4.4,27.78l-.22-1.27H27.82Z"/><path d="M21.48,6.23V7.81a.75.75,0,0,0,1.5,0V6.23L24.07,4.6a.75.75,0,1,0-1.25-.83l-.59.88-.58-.88a.76.76,0,0,0-1-.21.75.75,0,0,0-.21,1Z"/><path d="M11.73,7.81V4.19a.75.75,0,1,0-1.5,0V5.25H9.31V4.19a.75.75,0,1,0-1.5,0V7.81a.75.75,0,1,0,1.5,0V6.75h.92V7.81a.75.75,0,0,0,1.5,0Z"/><path d="M14.79,8.56a.75.75,0,0,0,.75-.75V6.66l1,1.57A.76.76,0,0,0,18,7.81V4.19a.75.75,0,0,0-1.5,0V5.34l-1-1.57A.76.76,0,0,0,14,4.19V7.81A.76.76,0,0,0,14.79,8.56Z"/><circle cx="13.86" cy="15" r="0.75"/><circle cx="16" cy="15" r="0.75"/><path d="M18.14,14.25h0a.75.75,0,0,0,0,1.5h0a.75.75,0,0,0,0-1.5Z"/></g></svg>